<?xml version="1.0" encoding="UTF-8"?>
<svg xmlns="http://www.w3.org/2000/svg" xmlns:xlink="http://www.w3.org/1999/xlink" width="500px" height="500px" viewBox="0 0 500 500" version="1.1">
<g id="surface1">
<path style="fill-rule:nonzero;fill:rgb(61.176473%,45.490196%,39.607844%);fill-opacity:1;stroke-width:0.01;stroke-linecap:butt;stroke-linejoin:miter;stroke:rgb(61.176473%,45.490196%,39.607844%);stroke-opacity:1;stroke-miterlimit:4;" d="M 1015.848 687.816 L 8.16 687.816 C 6.032 687.824 4 686.984 2.496 685.48 C 1 683.984 0.16 681.944 0.16 679.824 C 0.16 677.704 1 675.664 2.496 674.168 C 4 672.664 6.032 671.824 8.16 671.824 L 1015.848 671.824 C 1017.968 671.824 1020.008 672.664 1021.504 674.168 C 1023.008 675.664 1023.848 677.704 1023.84 679.824 C 1023.848 681.944 1023 683.976 1021.504 685.48 C 1020 686.976 1017.968 687.824 1015.848 687.816 Z M 512 767.768 C 494.368 767.768 480.008 753.424 480.008 735.776 C 480.008 718.128 494.368 703.784 512 703.784 C 529.632 703.784 543.992 718.128 543.992 735.776 C 543.992 753.424 529.632 767.768 512 767.768 Z M 512 719.784 C 503.192 719.784 496 726.968 496 735.776 C 496 744.584 503.192 751.768 512 751.768 C 520.824 751.768 528 744.584 528 735.776 C 528 726.968 520.824 719.784 512 719.784 Z M 376.152 975.728 C 373.728 975.736 371.432 974.632 369.904 972.744 C 368.384 970.848 367.808 968.376 368.328 966 L 400.32 822.048 C 401.28 817.752 405.608 815.088 409.856 815.968 C 414.168 816.928 416.888 821.2 415.936 825.512 L 383.944 969.472 C 383.136 973.12 379.896 975.728 376.152 975.728 Z M 647.864 975.728 C 644.112 975.728 640.872 973.128 640.056 969.464 L 608.072 825.512 C 607.12 821.2 609.832 816.928 614.144 815.968 C 616.216 815.504 618.384 815.888 620.176 817.024 C 621.968 818.168 623.224 819.976 623.68 822.048 L 655.68 966 C 656.2 968.368 655.616 970.848 654.096 972.736 C 652.584 974.632 650.288 975.728 647.864 975.728 Z M 647.864 975.728 " transform="matrix(0.488281,0,0,0.488281,0,0)"/>
<path style="fill-rule:nonzero;fill:rgb(61.176473%,45.490196%,39.607844%);fill-opacity:1;stroke-width:0.01;stroke-linecap:butt;stroke-linejoin:miter;stroke:rgb(61.176473%,45.490196%,39.607844%);stroke-opacity:1;stroke-miterlimit:4;" d="M 671.952 975.728 L 352.048 975.728 C 349.928 975.736 347.896 974.896 346.392 973.392 C 344.888 971.888 344.048 969.856 344.048 967.736 C 344.048 965.616 344.896 963.576 346.392 962.08 C 347.896 960.576 349.928 959.736 352.048 959.736 L 671.952 959.736 C 674.072 959.736 676.112 960.576 677.608 962.08 C 679.112 963.576 679.952 965.616 679.952 967.736 C 679.952 969.856 679.112 971.888 677.608 973.392 C 676.112 974.888 674.072 975.736 671.952 975.728 Z M 967.856 640.088 L 56.144 640.088 C 54.016 640.088 51.984 639.248 50.48 637.744 C 48.984 636.248 48.144 634.208 48.144 632.088 L 48.144 104.248 C 48.144 102.128 48.984 100.096 50.48 98.592 C 51.984 97.096 54.016 96.248 56.144 96.256 L 967.856 96.256 C 972.28 96.256 975.856 99.832 975.856 104.248 L 975.856 632.088 C 975.864 634.208 975.016 636.248 973.52 637.744 C 972.016 639.248 969.984 640.088 967.856 640.088 Z M 64.136 624.088 L 959.864 624.088 L 959.864 112.248 L 64.136 112.248 Z M 64.136 624.088 " transform="matrix(0.488281,0,0,0.488281,0,0)"/>
<path style="fill-rule:nonzero;fill:rgb(61.176473%,45.490196%,39.607844%);fill-opacity:1;stroke-width:0.01;stroke-linecap:butt;stroke-linejoin:miter;stroke:rgb(61.176473%,45.490196%,39.607844%);stroke-opacity:1;stroke-miterlimit:4;" d="M 967.856 800.04 L 56.144 800.04 C 25.272 800.04 0.16 774.92 0.16 744.056 L 0.16 104.248 C 0.16 73.384 25.28 48.272 56.144 48.272 L 967.856 48.272 C 998.728 48.272 1023.84 73.384 1023.84 104.248 L 1023.84 744.056 C 1023.84 774.92 998.728 800.04 967.856 800.04 Z M 56.144 64.264 C 34.096 64.264 16.152 82.2 16.152 104.248 L 16.152 744.056 C 16.152 766.112 34.096 784.04 56.144 784.04 L 967.856 784.04 C 989.92 784.04 1007.848 766.112 1007.848 744.056 L 1007.848 104.248 C 1007.848 82.2 989.92 64.264 967.856 64.264 Z M 56.144 64.264 " transform="matrix(0.488281,0,0,0.488281,0,0)"/>
<path style="fill-rule:nonzero;fill:rgb(61.176473%,45.490196%,39.607844%);fill-opacity:1;stroke-width:0.01;stroke-linecap:butt;stroke-linejoin:miter;stroke:rgb(61.176473%,45.490196%,39.607844%);stroke-opacity:1;stroke-miterlimit:4;" d="M 967.856 831.776 L 56.144 831.776 C 24.76 831.776 0.16 807.192 0.16 775.8 L 0.16 743.808 C 0.16 741.688 1 739.648 2.496 738.152 C 4 736.648 6.032 735.808 8.16 735.808 C 10.28 735.808 12.312 736.648 13.816 738.152 C 15.312 739.648 16.152 741.688 16.152 743.808 L 16.152 775.8 C 16.152 798.224 33.728 815.784 56.144 815.784 L 967.864 815.784 C 990.296 815.784 1007.848 798.224 1007.848 775.8 L 1007.848 744.056 C 1007.848 741.936 1008.688 739.896 1010.192 738.4 C 1011.696 736.896 1013.728 736.056 1015.848 736.056 C 1017.968 736.056 1020.008 736.896 1021.504 738.4 C 1023.008 739.896 1023.848 741.936 1023.848 744.056 L 1023.848 775.8 C 1023.848 807.192 999.256 831.776 967.864 831.776 Z M 88.128 640.088 C 86.008 640.088 83.976 639.248 82.472 637.744 C 80.976 636.248 80.128 634.208 80.128 632.088 L 80.128 104.248 C 80.128 102.128 80.976 100.096 82.472 98.592 C 83.976 97.096 86.008 96.248 88.128 96.256 C 90.248 96.248 92.288 97.096 93.784 98.592 C 95.288 100.096 96.128 102.128 96.128 104.248 L 96.128 632.088 C 96.128 634.208 95.288 636.248 93.784 637.744 C 92.288 639.248 90.248 640.088 88.128 640.088 Z M 88.128 640.088 " transform="matrix(0.488281,0,0,0.488281,0,0)"/>
<path style="fill-rule:nonzero;fill:rgb(61.176473%,45.490196%,39.607844%);fill-opacity:1;stroke-width:0.01;stroke-linecap:butt;stroke-linejoin:miter;stroke:rgb(61.176473%,45.490196%,39.607844%);stroke-opacity:1;stroke-miterlimit:4;" d="M 72.136 160.232 L 56.144 160.232 C 51.72 160.232 48.144 156.656 48.144 152.232 C 48.144 147.808 51.72 144.24 56.144 144.24 L 72.136 144.24 C 76.56 144.24 80.136 147.808 80.136 152.232 C 80.136 156.656 76.56 160.232 72.136 160.232 Z M 72.136 208.216 L 56.144 208.216 C 51.72 208.216 48.144 204.64 48.144 200.224 C 48.144 195.8 51.72 192.224 56.144 192.224 L 72.136 192.224 C 76.56 192.224 80.136 195.8 80.136 200.224 C 80.136 204.64 76.56 208.216 72.136 208.216 Z M 72.136 256.208 L 56.144 256.208 C 51.72 256.208 48.144 252.624 48.144 248.208 C 48.144 243.784 51.72 240.208 56.144 240.208 L 72.136 240.208 C 76.56 240.208 80.136 243.784 80.136 248.208 C 80.136 252.624 76.56 256.208 72.136 256.208 Z M 72.136 304.192 L 56.144 304.192 C 51.72 304.192 48.144 300.608 48.144 296.192 C 48.144 291.776 51.72 288.192 56.144 288.192 L 72.136 288.192 C 76.56 288.192 80.136 291.776 80.136 296.192 C 80.136 300.608 76.56 304.192 72.136 304.192 Z M 72.136 352.176 L 56.144 352.176 C 51.72 352.176 48.144 348.6 48.144 344.176 C 48.144 339.752 51.72 336.176 56.144 336.176 L 72.136 336.176 C 76.56 336.176 80.136 339.752 80.136 344.176 C 80.136 348.6 76.56 352.176 72.136 352.176 Z M 72.136 400.16 L 56.144 400.16 C 54.016 400.16 51.984 399.32 50.48 397.816 C 48.984 396.32 48.144 394.28 48.144 392.16 C 48.144 390.04 48.984 388.008 50.48 386.504 C 51.984 385.008 54.016 384.16 56.144 384.168 L 72.136 384.168 C 74.256 384.16 76.296 385.008 77.792 386.504 C 79.296 388.008 80.136 390.04 80.136 392.16 C 80.136 396.576 76.552 400.16 72.136 400.16 Z M 72.136 448.144 L 56.144 448.144 C 54.016 448.144 51.984 447.304 50.48 445.8 C 48.984 444.304 48.144 442.264 48.144 440.144 C 48.144 438.024 48.984 435.992 50.48 434.488 C 51.984 432.992 54.016 432.144 56.144 432.152 L 72.136 432.152 C 74.256 432.144 76.296 432.992 77.792 434.488 C 79.296 435.992 80.136 438.024 80.136 440.144 C 80.136 442.264 79.296 444.304 77.792 445.8 C 76.296 447.304 74.256 448.144 72.136 448.144 Z M 72.136 496.128 L 56.144 496.128 C 54.016 496.128 51.984 495.288 50.48 493.792 C 48.984 492.288 48.144 490.256 48.144 488.128 C 48.144 486.008 48.984 483.976 50.48 482.472 C 51.984 480.976 54.016 480.136 56.144 480.136 L 72.136 480.136 C 74.256 480.136 76.296 480.976 77.792 482.472 C 79.296 483.976 80.136 486.008 80.136 488.136 C 80.136 492.552 76.552 496.128 72.136 496.128 Z M 72.136 544.112 L 56.144 544.112 C 54.016 544.12 51.984 543.272 50.48 541.776 C 48.984 540.272 48.144 538.24 48.144 536.12 C 48.144 534 48.984 531.96 50.48 530.464 C 51.984 528.96 54.016 528.12 56.144 528.12 L 72.136 528.12 C 74.256 528.12 76.296 528.96 77.792 530.464 C 79.296 531.96 80.136 534 80.136 536.12 C 80.136 538.24 79.296 540.272 77.792 541.776 C 76.296 543.272 74.256 544.12 72.136 544.112 Z M 72.136 592.104 L 56.144 592.104 C 51.72 592.104 48.144 588.528 48.144 584.104 C 48.144 579.68 51.72 576.104 56.144 576.104 L 72.136 576.104 C 76.56 576.104 80.136 579.68 80.136 584.104 C 80.136 588.528 76.56 592.104 72.136 592.104 Z M 200.096 160.232 L 136.112 160.232 C 131.696 160.232 128.12 156.656 128.12 152.232 C 128.12 147.808 131.696 144.24 136.112 144.24 L 200.096 144.24 C 204.512 144.24 208.096 147.808 208.096 152.232 C 208.096 156.656 204.512 160.232 200.096 160.232 Z M 488.008 208.216 L 264.072 208.216 C 259.656 208.216 256.08 204.64 256.08 200.224 C 256.08 195.8 259.656 192.224 264.072 192.224 L 488.008 192.224 C 492.432 192.224 496 195.8 496 200.224 C 496 204.64 492.424 208.216 488.008 208.216 Z M 232.088 208.216 L 152.112 208.216 C 147.688 208.216 144.112 204.64 144.112 200.224 C 144.112 195.8 147.688 192.224 152.112 192.224 L 232.088 192.224 C 236.504 192.224 240.08 195.8 240.08 200.224 C 240.08 204.64 236.504 208.216 232.088 208.216 Z M 679.952 256.208 L 472.016 256.208 C 467.592 256.208 464.016 252.624 464.016 248.208 C 464.016 243.784 467.592 240.208 472.016 240.208 L 679.952 240.208 C 684.368 240.208 687.944 243.784 687.944 248.208 C 687.944 252.624 684.368 256.208 679.952 256.208 Z M 775.92 256.208 L 711.936 256.208 C 707.52 256.208 703.944 252.624 703.944 248.208 C 703.944 243.784 707.52 240.208 711.936 240.208 L 775.92 240.208 C 780.336 240.208 783.92 243.784 783.92 248.208 C 783.92 252.624 780.336 256.208 775.92 256.208 Z M 440.024 256.208 L 168.104 256.208 C 163.688 256.208 160.112 252.624 160.112 248.208 C 160.112 243.784 163.68 240.208 168.104 240.208 L 440.024 240.208 C 444.44 240.208 448.016 243.784 448.016 248.208 C 448.016 252.624 444.44 256.208 440.024 256.208 Z M 216.088 352.176 L 168.104 352.176 C 163.688 352.176 160.112 348.6 160.112 344.176 C 160.112 339.752 163.688 336.176 168.104 336.176 L 216.096 336.176 C 220.512 336.176 224.088 339.752 224.088 344.176 C 224.088 348.6 220.512 352.176 216.088 352.176 Z M 485.504 352.176 L 248.08 352.176 C 243.664 352.176 240.088 348.6 240.088 344.176 C 240.088 339.752 243.664 336.176 248.08 336.176 L 485.512 336.176 C 489.928 336.176 493.504 339.752 493.504 344.176 C 493.504 348.6 489.928 352.176 485.504 352.176 Z M 551.984 304.192 L 184.096 304.192 C 179.68 304.192 176.104 300.608 176.104 296.192 C 176.104 291.776 179.68 288.192 184.096 288.192 L 551.984 288.192 C 556.408 288.192 559.984 291.776 559.984 296.192 C 559.984 300.608 556.408 304.192 551.984 304.192 Z M 535.992 400.16 L 392.032 400.16 C 389.912 400.16 387.88 399.32 386.376 397.816 C 384.88 396.32 384.04 394.28 384.04 392.16 C 384.04 390.04 384.88 388.008 386.376 386.504 C 387.88 385.008 389.912 384.16 392.04 384.168 L 535.992 384.16 C 540.416 384.16 543.992 387.744 543.992 392.16 C 543.992 394.28 543.152 396.32 541.648 397.816 C 540.152 399.32 538.112 400.16 535.992 400.16 Z M 424.024 448.144 L 152.112 448.144 C 149.992 448.144 147.952 447.304 146.456 445.8 C 144.952 444.304 144.112 442.264 144.112 440.144 C 144.112 438.024 144.952 435.992 146.456 434.488 C 147.952 432.992 149.992 432.144 152.112 432.144 L 424.024 432.144 C 426.144 432.144 428.184 432.992 429.68 434.488 C 431.184 435.992 432.024 438.024 432.024 440.144 C 432.024 442.264 431.184 444.304 429.688 445.8 C 428.184 447.304 426.152 448.144 424.024 448.144 Z M 280.072 544.112 L 152.112 544.112 C 149.992 544.12 147.952 543.272 146.456 541.776 C 144.952 540.272 144.112 538.24 144.112 536.12 C 144.112 534 144.952 531.96 146.456 530.464 C 147.952 528.96 149.992 528.12 152.112 528.12 L 280.072 528.12 C 282.192 528.12 284.232 528.96 285.728 530.464 C 287.232 531.96 288.072 534 288.072 536.12 C 288.072 538.24 287.232 540.272 285.728 541.776 C 284.232 543.272 282.192 544.12 280.072 544.112 Z M 599.968 496.128 L 376.04 496.128 C 373.92 496.128 371.888 495.288 370.384 493.792 C 368.888 492.288 368.04 490.256 368.048 488.128 C 368.04 486.008 368.888 483.976 370.384 482.472 C 371.888 480.976 373.92 480.136 376.04 480.136 L 599.968 480.136 C 604.392 480.136 607.968 483.712 607.968 488.128 C 607.976 490.256 607.128 492.288 605.632 493.792 C 604.128 495.288 602.096 496.128 599.968 496.128 Z M 647.96 496.128 L 631.968 496.128 C 627.544 496.128 623.968 492.552 623.968 488.128 C 623.968 486.008 624.808 483.976 626.312 482.472 C 627.808 480.976 629.848 480.136 631.968 480.136 L 647.96 480.136 C 652.384 480.136 655.96 483.712 655.96 488.128 C 655.96 492.552 652.376 496.128 647.96 496.128 Z M 344.048 496.128 L 168.104 496.128 C 165.984 496.128 163.952 495.288 162.448 493.792 C 160.952 492.288 160.104 490.256 160.112 488.128 C 160.104 486.008 160.952 483.976 162.448 482.472 C 163.952 480.976 165.984 480.136 168.104 480.136 L 344.048 480.136 C 346.176 480.136 348.208 480.976 349.712 482.472 C 351.208 483.976 352.048 486.008 352.048 488.136 C 352.048 490.256 351.208 492.288 349.712 493.792 C 348.208 495.288 346.176 496.128 344.048 496.128 Z M 200.096 592.104 L 136.112 592.104 C 131.696 592.104 128.12 588.528 128.12 584.104 C 128.12 579.68 131.696 576.104 136.112 576.104 L 200.096 576.104 C 204.512 576.104 208.096 579.68 208.096 584.104 C 208.096 588.528 204.512 592.104 200.096 592.104 Z M 551.984 448.144 L 456.016 448.144 C 453.896 448.144 451.856 447.304 450.36 445.8 C 448.856 444.304 448.016 442.264 448.016 440.144 C 448.016 438.024 448.856 435.992 450.36 434.488 C 451.856 432.992 453.896 432.144 456.016 432.144 L 551.984 432.144 C 554.112 432.144 556.144 432.992 557.648 434.488 C 559.144 435.992 559.984 438.024 559.984 440.144 C 559.984 442.264 559.144 444.304 557.648 445.8 C 556.144 447.304 554.112 448.144 551.984 448.144 Z M 679.952 400.16 L 567.984 400.16 C 563.568 400.16 559.984 396.584 559.984 392.16 C 559.984 390.04 560.824 388.008 562.328 386.504 C 563.832 385.008 565.864 384.16 567.984 384.168 L 679.952 384.168 C 682.072 384.16 684.104 385.008 685.608 386.504 C 687.104 388.008 687.952 390.04 687.944 392.16 C 687.952 394.28 687.104 396.32 685.608 397.816 C 684.104 399.32 682.072 400.16 679.952 400.16 Z M 360.048 400.16 L 168.104 400.16 C 165.984 400.16 163.952 399.32 162.448 397.816 C 160.952 396.32 160.104 394.28 160.104 392.16 C 160.104 390.04 160.952 388.008 162.448 386.504 C 163.952 385.008 165.984 384.16 168.104 384.168 L 360.048 384.168 C 362.168 384.16 364.208 385.008 365.704 386.504 C 367.208 388.008 368.048 390.04 368.048 392.16 C 368.048 396.584 364.464 400.16 360.048 400.16 Z M 360.048 400.16 " transform="matrix(0.488281,0,0,0.488281,0,0)"/>
</g>
</svg>
